<svg version="1.1" id="Layer_1" xmlns="http://www.w3.org/2000/svg" style="max-width: 100px" xmlns:xlink="http://www.w3.org/1999/xlink" x="0px" y="0px"
	 viewBox="0 0 306 81" style="enable-background:new 0 0 306 81;" xml:space="preserve">
	<path d="M140.72,14l-10.6,53H225c1.56,0,38.58-0.53,66.43-46.94l3.63-6.06H140.72z M245.14,53.54C233.6,58.88,225.07,59,225,59
		h-85.12l7.4-37h133.41C268.35,40.06,254.77,49.09,245.14,53.54z"/>
	<path d="M14.88,14l-3.42,13.68c-1.65,6.6,0.34,13.29,5.33,17.91c4.99,4.62,11.82,6.09,18.27,3.94c1.06-0.35,2.16-0.53,3.27-0.53
		h59.02l22.11,22.11L130.88,14H14.88z M114.54,54.89L100.66,41H38.33c-1.98,0-3.93,0.32-5.8,0.94c-3.64,1.21-7.49,0.38-10.3-2.22
		c-2.81-2.6-3.94-6.38-3.01-10.1l1.9-7.62h100L114.54,54.89z"/>
</svg>
